<?xml version="1.0" encoding="utf-8"?>
<!-- Generator: Adobe Illustrator 24.1.2, SVG Export Plug-In . SVG Version: 6.00 Build 0)  -->
<svg version="1.1" id="Layer_1" xmlns="http://www.w3.org/2000/svg" xmlns:xlink="http://www.w3.org/1999/xlink" x="0px" y="0px"
	 viewBox="0 0 560 288" style="enable-background:new 0 0 560 288;" xml:space="preserve">
<style type="text/css">
	.st0{fill:#12EA3A;stroke:#000000;stroke-miterlimit:10;}
	.st1{fill:#FFFFFF;stroke:#000000;stroke-miterlimit:10;}
</style>
<path class="st0" d="M283.95,201.97c8.17,12.54,16.33,25.08,24.5,37.62c-8.74,2.17-21.23,4.46-36.25,4.42
	c-33.94-0.1-58.21-12.06-66.91-16.78c-13.04-7.07-23.4-12.62-32.09-25.92c-3.66-5.6-13.03-20.42-12.08-41.46
	c0.77-16.98,8.2-36.85,22.93-46.94c3.23-2.22,13.34-9.15,24.49-6.18c3.7,0.99,6.22,2.7,8.27,4.18
	c15.23,10.94,22.84,16.41,31.96,27.56c6.89,8.42,10.8,15.59,18.64,29.92C274.89,182.06,280.34,193.76,283.95,201.97z"/>
<path class="st1" d="M345.59,67.99c-4.86-4.79-10.42-10.03-10.42-10.03c0,0,0,0,0,0c-3.56-3.29-11.15-10.29-18.1-15.6
	c-12.98-9.91-25.32-15.09-33.92-18.64c-11.85-4.89-20.67-7-34.9-10.4c-11.76-2.81-17.63-4.22-19-3.29
	c-8.88,6.07,20.14,43.79,62.76,119.08c16.25,28.7,32.65,59.66,60.94,83.76c14.57,12.41,28.43,19.71,36.12,23.71
	c11.42,5.94,35.16,16.93,38.32,12.62c1.36-1.85-3.22-5.54-9.34-16.48c-3.74-6.7-5.69-11.81-8.89-20.31
	c-7.26-19.28-14.09-42.91-17.91-55.06C391.26,157.35,371.01,93.04,345.59,67.99z"/>
<path class="st1" d="M128.57,266.8"/>
<path class="st0" d="M303.9,192.78"/>
</svg>
